<svg xmlns="http://www.w3.org/2000/svg" viewBox="0 0 680 680" width="512" height="512">
  <defs>
    <linearGradient id="gbg" x1="0" y1="0" x2="1" y2="1" gradientUnits="objectBoundingBox">
      <stop offset="0%" stop-color="#1e2745"/>
      <stop offset="100%" stop-color="#28345e"/>
    </linearGradient>
    <linearGradient id="gcurve" x1="0" y1="0" x2="1" y2="0" gradientUnits="objectBoundingBox">
      <stop offset="0%" stop-color="#7eb8ff"/>
      <stop offset="50%" stop-color="#38e8c8"/>
      <stop offset="100%" stop-color="#a8f040"/>
    </linearGradient>
    <linearGradient id="gpro" x1="0" y1="0" x2="1" y2="0" gradientUnits="objectBoundingBox">
      <stop offset="0%" stop-color="#a8f040"/>
      <stop offset="100%" stop-color="#38e8c8"/>
    </linearGradient>
    <linearGradient id="gzone" x1="0" y1="0" x2="0" y2="1" gradientUnits="objectBoundingBox">
      <stop offset="0%" stop-color="#a8f040" stop-opacity="0.12"/>
      <stop offset="100%" stop-color="#a8f040" stop-opacity="0"/>
    </linearGradient>
    <clipPath id="roundclip">
      <rect x="0" y="0" width="680" height="680" rx="152"/>
    </clipPath>
  </defs>
  <rect x="0" y="0" width="680" height="680" rx="152" fill="url(#gbg)"/>
  <ellipse cx="260" cy="210" rx="290" ry="250" fill="#a8f040" fill-opacity="0.07" clip-path="url(#roundclip)"/>
  <ellipse cx="500" cy="500" rx="220" ry="190" fill="#38e8c8" fill-opacity="0.06" clip-path="url(#roundclip)"/>
  <g clip-path="url(#roundclip)" opacity="0.06" stroke="#7eb8ff" stroke-width="1">
    <line x1="0" y1="170" x2="680" y2="170"/>
    <line x1="0" y1="340" x2="680" y2="340"/>
    <line x1="0" y1="510" x2="680" y2="510"/>
    <line x1="170" y1="0" x2="170" y2="680"/>
    <line x1="340" y1="0" x2="340" y2="680"/>
    <line x1="510" y1="0" x2="510" y2="680"/>
  </g>
  <path d="M 86 500 C 160 500 200 420 258 384 C 308 352 332 360 380 326 C 426 294 448 268 502 228 C 538 202 558 192 608 162 L 608 560 L 86 560 Z" fill="url(#gzone)" clip-path="url(#roundclip)"/>
  <path d="M 86 500 C 160 500 200 420 258 384 C 308 352 332 360 380 326 C 426 294 448 268 502 228 C 538 202 558 192 608 162" fill="none" stroke="url(#gcurve)" stroke-width="6" stroke-linecap="round" stroke-linejoin="round"/>
  <circle cx="258" cy="384" r="9" fill="#38e8c8"/>
  <circle cx="380" cy="326" r="9" fill="#38e8c8"/>
  <circle cx="502" cy="228" r="11" fill="#a8f040"/>
  <circle cx="608" cy="162" r="32" fill="#a8f040" fill-opacity="0.12"/>
  <circle cx="608" cy="162" r="20" fill="#a8f040" fill-opacity="0.22"/>
  <circle cx="608" cy="162" r="12" fill="#a8f040"/>
  <line x1="608" y1="162" x2="608" y2="542" stroke="#a8f040" stroke-width="2" stroke-dasharray="6 5" opacity="0.28"/>
  <line x1="72" y1="548" x2="632" y2="548" stroke="#3a4570" stroke-width="2.5" opacity="0.6"/>
  <line x1="80" y1="120" x2="80" y2="552" stroke="#3a4570" stroke-width="2.5" opacity="0.6"/>
  <line x1="608" y1="548" x2="608" y2="562" stroke="#a8f040" stroke-width="3"/>
  <rect x="86" y="66" width="170" height="9" rx="4.5" fill="url(#gpro)" opacity="0.95"/>
  <polygon points="86,96 118,96 174,268 142,268" fill="white"/>
  <polygon points="254,96 286,96 230,268 198,268" fill="white"/>
  <rect x="304" y="96" width="30" height="172" fill="white"/>
  <polygon points="334,96 420,188 420,96 450,96 450,130 420,188 420,130 334,130" fill="white"/>
  <rect x="420" y="96" width="30" height="172" fill="white"/>
  <polygon points="494,96 514,96 574,268 544,268" fill="white"/>
  <polygon points="494,96 514,96 454,268 484,268" fill="white"/>
  <rect x="466" y="210" width="82" height="22" fill="white"/>
  <circle cx="602" cy="106" r="18" fill="#a8f040"/>
  <circle cx="602" cy="106" r="27" fill="#a8f040" fill-opacity="0.18"/>
  <rect x="86" y="286" width="400" height="2.5" rx="1.25" fill="#3a4570" opacity="0.7"/>
  <rect x="86" y="298" width="268" height="52" rx="10" fill="url(#gpro)" opacity="0.92"/>
  <rect x="110" y="312" width="8" height="32" fill="#1e2745"/>
  <path d="M 118 312 Q 148 312 148 328 Q 148 344 118 344" fill="none" stroke="#1e2745" stroke-width="8" stroke-linecap="round"/>
  <rect x="162" y="312" width="8" height="32" fill="#1e2745"/>
  <path d="M 170 312 Q 198 312 198 328 Q 198 344 170 344" fill="none" stroke="#1e2745" stroke-width="8" stroke-linecap="round"/>
  <line x1="184" y1="328" x2="204" y2="344" stroke="#1e2745" stroke-width="8" stroke-linecap="round"/>
  <ellipse cx="232" cy="328" rx="18" ry="16" fill="none" stroke="#1e2745" stroke-width="8"/>
  <text x="86" y="384" font-family="'Courier New', monospace" font-size="20" fill="#4a5580" letter-spacing="5">FRACTIONNÉ</text>
  <rect x="86" y="570" width="110" height="34" rx="8" fill="#b88af5" fill-opacity="0.14"/>
  <rect x="86" y="570" width="110" height="34" rx="8" fill="none" stroke="#b88af5" stroke-width="2" opacity="0.65"/>
  <text x="141" y="593" font-family="Arial, sans-serif" font-size="13" font-weight="700" fill="#b88af5" text-anchor="middle" letter-spacing="1">RÉC</text>
  <rect x="206" y="570" width="110" height="34" rx="8" fill="#5ec8ff" fill-opacity="0.14"/>
  <rect x="206" y="570" width="110" height="34" rx="8" fill="none" stroke="#5ec8ff" stroke-width="2" opacity="0.65"/>
  <text x="261" y="593" font-family="Arial, sans-serif" font-size="13" font-weight="700" fill="#5ec8ff" text-anchor="middle" letter-spacing="1">END</text>
  <rect x="326" y="570" width="110" height="34" rx="8" fill="#38e8c8" fill-opacity="0.14"/>
  <rect x="326" y="570" width="110" height="34" rx="8" fill="none" stroke="#38e8c8" stroke-width="2" opacity="0.65"/>
  <text x="381" y="593" font-family="Arial, sans-serif" font-size="13" font-weight="700" fill="#38e8c8" text-anchor="middle" letter-spacing="1">SEU</text>
  <rect x="446" y="570" width="110" height="34" rx="8" fill="#a8f040" fill-opacity="0.14"/>
  <rect x="446" y="570" width="110" height="34" rx="8" fill="none" stroke="#a8f040" stroke-width="2" opacity="0.65"/>
  <text x="501" y="593" font-family="Arial, sans-serif" font-size="13" font-weight="700" fill="#a8f040" text-anchor="middle" letter-spacing="1">VMA</text>
  <rect x="0" y="0" width="680" height="680" rx="152" fill="none" stroke="#3a4570" stroke-width="2" opacity="0.45"/>
</svg>
